<svg id="Group_5" data-name="Group 5" xmlns="http://www.w3.org/2000/svg" xmlns:xlink="http://www.w3.org/1999/xlink" width="48.284" height="78.353" viewBox="0 0 48.284 78.353">
  <defs>
    <clipPath id="clip-path">
      <rect id="Rectangle_5" data-name="Rectangle 5" width="48.284" height="78.353" fill="#6dd5b6"/>
    </clipPath>
  </defs>
  <g id="Group_4" data-name="Group 4" clip-path="url(#clip-path)">
    <path id="Subtraction_1" data-name="Subtraction 1" d="M19.56,39.122a19.7,19.7,0,0,1-3.942-.4,19.453,19.453,0,0,1-6.994-2.943,19.618,19.618,0,0,1-7.087-8.606A19.46,19.46,0,0,1,.4,23.5a19.755,19.755,0,0,1,0-7.885,19.455,19.455,0,0,1,2.943-7,19.617,19.617,0,0,1,8.606-7.087A19.462,19.462,0,0,1,15.618.4,19.75,19.75,0,0,1,23.5.4,19.452,19.452,0,0,1,30.5,3.341a19.618,19.618,0,0,1,7.087,8.607,19.466,19.466,0,0,1,1.14,3.672,19.754,19.754,0,0,1,0,7.885A19.453,19.453,0,0,1,35.78,30.5a19.618,19.618,0,0,1-8.606,7.087,19.461,19.461,0,0,1-3.672,1.14A19.7,19.7,0,0,1,19.56,39.122Zm.092-30.406A10.845,10.845,0,1,0,30.5,19.561,10.857,10.857,0,0,0,19.652,8.716Z" transform="translate(8.948 0.108)" fill="#17bfa8" stroke="rgba(0,0,0,0)" stroke-miterlimit="10" stroke-width="1"/>
    <path id="Path_17" data-name="Path 17" d="M1.961.5,0,.781V78.745H8.915V7.454A6.955,6.955,0,0,0,1.961.5M28.724,39.622H8.915V47.3H27.94c7.31,0,13.239,5.319,13.239,11.885S35.25,71.067,27.94,71.067H8.915v7.678H28.724a19.561,19.561,0,0,0,0-39.122" transform="translate(0 -0.392)" fill="#fff"/>
  </g>
</svg>
