<svg xmlns="http://www.w3.org/2000/svg" xmlns:xlink="http://www.w3.org/1999/xlink" width="178.849" height="78.353" viewBox="0 0 178.849 78.353">
  <defs>
    <clipPath id="clip-path">
      <rect id="Rectangle_5" data-name="Rectangle 5" width="48.284" height="78.353" fill="#6dd5b6"/>
    </clipPath>
  </defs>
  <g id="Group_7" data-name="Group 7" transform="translate(-672 698.337)">
    <path id="Path_20" data-name="Path 20" d="M4.241-1.277a.93.93,0,0,1-.683-.281.93.93,0,0,1-.281-.683V-28.413a.98.98,0,0,1,.281-.724.93.93,0,0,1,.683-.281H15.9a12.3,12.3,0,0,1,5.307.985,6.7,6.7,0,0,1,3.035,2.714,7.98,7.98,0,0,1,.985,4.02,6.183,6.183,0,0,1-.543,2.673,6,6,0,0,1-1.327,1.869,7.386,7.386,0,0,1-1.548,1.126,7.1,7.1,0,0,1,2.774,2.412A6.734,6.734,0,0,1,25.789-9.6,8.479,8.479,0,0,1,24.7-5.3a7.418,7.418,0,0,1-3.216,2.955,11.705,11.705,0,0,1-5.266,1.065ZM8.864-5.538h6.714a4.333,4.333,0,0,0,3.3-1.186A4.023,4.023,0,0,0,20-9.6a4.016,4.016,0,0,0-1.146-2.935A4.388,4.388,0,0,0,15.578-13.7H8.864Zm0-12.342h6.312a4.447,4.447,0,0,0,3.2-1.025,3.543,3.543,0,0,0,1.065-2.673,3.336,3.336,0,0,0-1.065-2.633,4.693,4.693,0,0,0-3.2-.945H8.864Zm22.513,16.6a.93.93,0,0,1-.683-.281.93.93,0,0,1-.281-.683V-28.855a.93.93,0,0,1,.281-.683.93.93,0,0,1,.683-.281h3.337a.93.93,0,0,1,.683.281.93.93,0,0,1,.281.683V-2.242a.93.93,0,0,1-.281.683.93.93,0,0,1-.683.281Zm18.895.4A11.742,11.742,0,0,1,44.864-2a7.8,7.8,0,0,1-3.337-3.176,11,11,0,0,1-1.307-4.784q-.04-.724-.04-1.769t.04-1.769a10.607,10.607,0,0,1,1.347-4.8,8.1,8.1,0,0,1,3.377-3.156,11.547,11.547,0,0,1,5.327-1.126A11.547,11.547,0,0,1,55.6-21.458,8.1,8.1,0,0,1,58.975-18.3a10.607,10.607,0,0,1,1.347,4.8q.04.724.04,1.769t-.04,1.769a11,11,0,0,1-1.307,4.784A7.8,7.8,0,0,1,55.678-2,11.742,11.742,0,0,1,50.271-.875Zm0-3.98a4.125,4.125,0,0,0,3.3-1.347,6.363,6.363,0,0,0,1.286-3.96q.04-.6.04-1.568t-.04-1.568a6.391,6.391,0,0,0-1.286-3.94,4.1,4.1,0,0,0-3.3-1.367,4.1,4.1,0,0,0-3.3,1.367,6.391,6.391,0,0,0-1.286,3.94q-.04.6-.04,1.568t.04,1.568A6.363,6.363,0,0,0,46.975-6.2,4.125,4.125,0,0,0,50.271-4.855Zm23.8,3.98A11.742,11.742,0,0,1,68.663-2a7.8,7.8,0,0,1-3.337-3.176A11,11,0,0,1,64.02-9.961q-.04-.724-.04-1.769t.04-1.769a10.607,10.607,0,0,1,1.347-4.8,8.1,8.1,0,0,1,3.377-3.156,11.547,11.547,0,0,1,5.327-1.126A11.547,11.547,0,0,1,79.4-21.458,8.1,8.1,0,0,1,82.774-18.3a10.607,10.607,0,0,1,1.347,4.8q.04.724.04,1.769t-.04,1.769a11,11,0,0,1-1.307,4.784A7.8,7.8,0,0,1,79.477-2,11.743,11.743,0,0,1,74.07-.875Zm0-3.98a4.125,4.125,0,0,0,3.3-1.347,6.363,6.363,0,0,0,1.286-3.96q.04-.6.04-1.568t-.04-1.568a6.391,6.391,0,0,0-1.286-3.94,4.1,4.1,0,0,0-3.3-1.367,4.1,4.1,0,0,0-3.3,1.367,6.391,6.391,0,0,0-1.286,3.94q-.04.6-.04,1.568t.04,1.568A6.363,6.363,0,0,0,70.774-6.2,4.125,4.125,0,0,0,74.07-4.855ZM89.588-1.277a.93.93,0,0,1-.683-.281.93.93,0,0,1-.281-.683V-21.217A.93.93,0,0,1,88.9-21.9a.93.93,0,0,1,.683-.281h3.136a.93.93,0,0,1,.683.281.93.93,0,0,1,.281.683v1.367a6.985,6.985,0,0,1,2.271-1.91,7.27,7.27,0,0,1,3.4-.824q4.583-.08,6.392,3.578a6.917,6.917,0,0,1,2.673-2.593,7.768,7.768,0,0,1,3.879-.985,7.591,7.591,0,0,1,3.8.965,6.708,6.708,0,0,1,2.693,2.915,10.885,10.885,0,0,1,.985,4.925V-2.242a.93.93,0,0,1-.281.683.93.93,0,0,1-.683.281h-3.3a.93.93,0,0,1-.683-.281.93.93,0,0,1-.281-.683V-13.458a6.6,6.6,0,0,0-.523-2.874,3.162,3.162,0,0,0-1.407-1.508,4.343,4.343,0,0,0-1.97-.442,3.925,3.925,0,0,0-1.769.442,3.365,3.365,0,0,0-1.447,1.508,6.189,6.189,0,0,0-.563,2.874V-2.242a.931.931,0,0,1-.281.683.93.93,0,0,1-.683.281h-3.3a.914.914,0,0,1-.7-.281.968.968,0,0,1-.261-.683V-13.458a6.189,6.189,0,0,0-.563-2.874,3.365,3.365,0,0,0-1.447-1.508,4.168,4.168,0,0,0-1.889-.442,3.863,3.863,0,0,0-1.809.462,3.507,3.507,0,0,0-1.447,1.508,6.062,6.062,0,0,0-.563,2.854V-2.242a.93.93,0,0,1-.281.683.93.93,0,0,1-.683.281Z" transform="translate(731.07 -642.625)" fill="#fff"/>
    <g id="Group_5" data-name="Group 5" transform="translate(672 -698.337)">
      <g id="Group_4" data-name="Group 4" clip-path="url(#clip-path)">
        <path id="Subtraction_1" data-name="Subtraction 1" d="M19.56,39.122a19.7,19.7,0,0,1-3.942-.4,19.453,19.453,0,0,1-6.994-2.943,19.618,19.618,0,0,1-7.087-8.606A19.46,19.46,0,0,1,.4,23.5a19.755,19.755,0,0,1,0-7.885,19.455,19.455,0,0,1,2.943-7,19.617,19.617,0,0,1,8.606-7.087A19.462,19.462,0,0,1,15.618.4,19.75,19.75,0,0,1,23.5.4,19.452,19.452,0,0,1,30.5,3.341a19.618,19.618,0,0,1,7.087,8.607,19.466,19.466,0,0,1,1.14,3.672,19.754,19.754,0,0,1,0,7.885A19.453,19.453,0,0,1,35.78,30.5a19.618,19.618,0,0,1-8.606,7.087,19.461,19.461,0,0,1-3.672,1.14A19.7,19.7,0,0,1,19.56,39.122Zm.092-30.406A10.845,10.845,0,1,0,30.5,19.561,10.857,10.857,0,0,0,19.652,8.716Z" transform="translate(8.948 0.108)" fill="#17bfa8" stroke="rgba(0,0,0,0)" stroke-miterlimit="10" stroke-width="1"/>
        <path id="Path_17" data-name="Path 17" d="M1.961.5,0,.781V78.745H8.915V7.454A6.955,6.955,0,0,0,1.961.5M28.724,39.622H8.915V47.3H27.94c7.31,0,13.239,5.319,13.239,11.885S35.25,71.067,27.94,71.067H8.915v7.678H28.724a19.561,19.561,0,0,0,0-39.122" transform="translate(0 -0.392)" fill="#fff"/>
      </g>
    </g>
  </g>
</svg>
